<svg width="884" height="918" viewBox="0 0 884 918" fill="none" xmlns="http://www.w3.org/2000/svg">
<path d="M655.951 142.716C679.436 154.582 699.858 171.719 715.623 192.787V192.787C729.733 211.644 739.787 233.218 745.151 256.152L747.78 267.391C753.312 291.037 754.992 315.42 752.757 339.602L751.157 356.906C748.596 384.616 742.569 411.895 733.218 438.105L724.853 461.552C715.847 486.793 704.217 511.019 690.154 533.833L670.893 565.078C657.896 586.162 642.884 605.935 626.07 624.12L598.722 653.696C581.457 672.367 562.375 689.273 541.759 704.162L517.846 721.433C494.369 738.389 469.044 752.628 442.357 763.876L424.492 771.406C400.709 781.43 375.629 788.041 349.995 791.044L334.748 792.829C311.428 795.561 287.804 793.973 265.059 788.146L259.037 786.603C235.269 780.514 213.171 769.164 194.375 753.393V753.393C175.579 737.621 160.565 717.83 150.441 695.48L147.876 689.818C138.188 668.43 132.522 645.441 131.162 622L130.273 606.676C128.779 580.91 130.934 555.062 136.676 529.9L140.99 510.999C147.433 482.764 157.057 455.352 169.679 429.287L182.535 402.737C193.619 379.849 206.954 358.122 222.344 337.877L246.722 305.809C261.71 286.092 278.576 267.875 297.082 251.414L324.509 227.02C344.533 209.209 366.372 193.549 389.666 180.297L411.304 167.987C435.492 154.227 461.31 143.555 488.155 136.22L504.918 131.64C528.344 125.24 552.649 122.661 576.896 124.002L588.421 124.639C611.937 125.94 634.93 132.095 655.951 142.716V142.716Z" fill="url(#paint0_linear_601_38)"/>
<path d="M643.08 162.383C665.171 173.567 684.388 189.692 699.239 209.506V209.506C712.548 227.263 722.045 247.578 727.137 269.177L729.603 279.64C734.85 301.901 736.471 324.862 734.404 347.639L732.94 363.77C730.575 389.834 724.943 415.497 716.177 440.156L709.243 459.665C700.239 484.995 688.593 509.307 674.497 532.198L659.076 557.244C646.044 578.409 630.983 598.254 614.105 616.5L591.775 640.642C574.448 659.373 555.293 676.327 534.595 691.249L515.506 705.011C492.556 721.557 467.798 735.44 441.711 746.391L426.523 752.767C404.126 762.168 380.512 768.353 356.382 771.135L342.174 772.774C320.197 775.308 297.942 773.777 276.519 768.257L270.915 766.813C248.538 761.047 227.736 750.345 210.034 735.492V735.492C192.333 720.638 178.181 702.011 168.617 680.975L166.222 675.707C157.066 655.568 151.693 633.916 150.373 611.833L149.519 597.557C148.07 573.31 150.059 548.981 155.429 525.292L159.071 509.227C165.325 481.635 174.698 454.843 187.007 429.368L197.245 408.179C208.347 385.204 221.716 363.396 237.155 343.08L257.052 316.897C272.09 297.108 289.019 278.829 307.599 262.32L329.586 242.783C349.682 224.927 371.602 209.237 394.984 195.971L412.992 185.754C435.755 172.839 460.05 162.837 485.307 155.981L500.939 151.738C523.011 145.747 545.905 143.357 568.739 144.659L579.471 145.271C601.626 146.534 623.281 152.36 643.08 162.383V162.383Z" fill="white"/>
<path d="M141.951 624.688C158.967 621.071 175.694 631.934 179.311 648.951C182.928 665.968 172.066 682.695 155.049 686.312C138.032 689.929 121.305 679.066 117.688 662.049C114.071 645.033 124.934 628.305 141.951 624.688Z" fill="#8A7F7F"/>
<g style="mix-blend-mode:plus-darker" filter="url(#filter0_d_601_38)">
<path d="M562.5 452C555.5 520 562.5 567 452.164 610.375C328.712 639.037 274.712 568.037 307.664 498.5C360.359 387.3 333.223 350.288 422.664 318.501C549.212 273.525 562.5 320.037 562.5 452Z" fill="#215F6D"/>
<path d="M561 451.923C560.34 458.34 559.807 464.538 559.289 470.55C558.43 480.538 557.614 490.012 556.337 499.126C554.297 513.689 551.099 527.115 544.743 539.748C532.07 564.935 506.651 587.328 451.717 608.939C390.315 623.17 346.575 612.543 322.279 590.159C298.03 567.819 292.775 533.423 309.019 499.143C322.23 471.264 330.438 448.034 336.715 428.389C338.627 422.405 340.355 416.77 341.988 411.446C345.73 399.245 348.971 388.678 352.775 379.284C358.209 365.861 364.736 354.998 375.371 345.518C386.028 336.019 400.904 327.826 423.166 319.914C454.751 308.689 479.113 303.232 497.893 303.328C516.606 303.424 529.672 309.027 538.895 319.87C548.189 330.796 553.752 347.235 556.962 369.359C560.166 391.441 560.999 418.972 561 451.923Z" stroke="black" stroke-width="3"/>
</g>
<mask id="path-6-outside-1_601_38" maskUnits="userSpaceOnUse" x="368" y="374" width="147" height="189" fill="black">
<rect fill="white" x="368" y="374" width="147" height="189"/>
<path d="M369.545 562V375.818H392.091V458.727H491.364V375.818H513.909V562H491.364V478.727H392.091V562H369.545Z"/>
</mask>
<g filter="url(#filter1_i_601_38)">
<path d="M369.545 562V375.818H392.091V458.727H491.364V375.818H513.909V562H491.364V478.727H392.091V562H369.545Z" fill="#4FB7E4"/>
</g>
<path d="M369.545 562H368.545V563H369.545V562ZM369.545 375.818V374.818H368.545V375.818H369.545ZM392.091 375.818H393.091V374.818H392.091V375.818ZM392.091 458.727H391.091V459.727H392.091V458.727ZM491.364 458.727V459.727H492.364V458.727H491.364ZM491.364 375.818V374.818H490.364V375.818H491.364ZM513.909 375.818H514.909V374.818H513.909V375.818ZM513.909 562V563H514.909V562H513.909ZM491.364 562H490.364V563H491.364V562ZM491.364 478.727H492.364V477.727H491.364V478.727ZM392.091 478.727V477.727H391.091V478.727H392.091ZM392.091 562V563H393.091V562H392.091ZM370.545 562V375.818H368.545V562H370.545ZM369.545 376.818H392.091V374.818H369.545V376.818ZM391.091 375.818V458.727H393.091V375.818H391.091ZM392.091 459.727H491.364V457.727H392.091V459.727ZM492.364 458.727V375.818H490.364V458.727H492.364ZM491.364 376.818H513.909V374.818H491.364V376.818ZM512.909 375.818V562H514.909V375.818H512.909ZM513.909 561H491.364V563H513.909V561ZM492.364 562V478.727H490.364V562H492.364ZM491.364 477.727H392.091V479.727H491.364V477.727ZM391.091 478.727V562H393.091V478.727H391.091ZM392.091 561H369.545V563H392.091V561Z" fill="black" mask="url(#path-6-outside-1_601_38)"/>
<defs>
<filter id="filter0_d_601_38" x="294.176" y="301.827" width="272.324" height="323.069" filterUnits="userSpaceOnUse" color-interpolation-filters="sRGB">
<feFlood flood-opacity="0" result="BackgroundImageFix"/>
<feColorMatrix in="SourceAlpha" type="matrix" values="0 0 0 0 0 0 0 0 0 0 0 0 0 0 0 0 0 0 127 0" result="hardAlpha"/>
<feOffset dy="4"/>
<feGaussianBlur stdDeviation="2"/>
<feComposite in2="hardAlpha" operator="out"/>
<feColorMatrix type="matrix" values="0 0 0 0 0 0 0 0 0 0 0 0 0 0 0 0 0 0 0.25 0"/>
<feBlend mode="normal" in2="BackgroundImageFix" result="effect1_dropShadow_601_38"/>
<feBlend mode="normal" in="SourceGraphic" in2="effect1_dropShadow_601_38" result="shape"/>
</filter>
<filter id="filter1_i_601_38" x="369.545" y="375.818" width="144.364" height="190.182" filterUnits="userSpaceOnUse" color-interpolation-filters="sRGB">
<feFlood flood-opacity="0" result="BackgroundImageFix"/>
<feBlend mode="normal" in="SourceGraphic" in2="BackgroundImageFix" result="shape"/>
<feColorMatrix in="SourceAlpha" type="matrix" values="0 0 0 0 0 0 0 0 0 0 0 0 0 0 0 0 0 0 127 0" result="hardAlpha"/>
<feOffset dy="4"/>
<feGaussianBlur stdDeviation="2"/>
<feComposite in2="hardAlpha" operator="arithmetic" k2="-1" k3="1"/>
<feColorMatrix type="matrix" values="0 0 0 0 0 0 0 0 0 0 0 0 0 0 0 0 0 0 0.25 0"/>
<feBlend mode="normal" in2="shape" result="effect1_innerShadow_601_38"/>
</filter>
<linearGradient id="paint0_linear_601_38" x1="691.656" y1="160.757" x2="191.583" y2="756.721" gradientUnits="userSpaceOnUse">
<stop stop-color="#3D3939"/>
<stop offset="0.315" stop-color="#908888"/>
<stop offset="0.56" stop-color="#735F5F"/>
<stop offset="0.825" stop-color="#504B4B"/>
</linearGradient>
</defs>
</svg>
