<svg width="1644" height="918" viewBox="0 0 1644 918" fill="none" xmlns="http://www.w3.org/2000/svg">
<path d="M1043.36 403.728C1043.36 406.8 1040.71 411.323 1035.42 417.296C1029.11 424.464 1012.64 446.48 986.016 483.344C986.357 505.36 987.04 520.464 988.064 528.656C988.576 533.776 988.832 537.445 988.832 539.664C988.832 545.296 987.808 549.136 985.76 551.184C983.883 553.061 980.555 554 975.776 554C972.192 554 968.779 552.976 965.536 550.928C962.464 548.709 960.928 546.064 960.928 542.992C960.928 530.533 960.672 512.272 960.16 488.208C960.16 487.184 959.477 485.477 958.112 483.088C956.747 480.699 955.893 479.163 955.552 478.48C951.968 472.165 947.445 465.168 941.984 457.488C936.693 449.637 932.085 443.749 928.16 439.824C920.651 432.315 914.763 425.573 910.496 419.6C906.229 413.456 904.096 409.104 904.096 406.544C904.096 402.96 905.717 400.144 908.96 398.096C912.373 395.877 916.043 394.768 919.968 394.768C922.187 394.768 924.491 395.365 926.88 396.56C929.44 397.755 931.488 399.461 933.024 401.68C943.093 416.699 952.053 429.157 959.904 439.056L971.936 454.672C979.275 447.163 985.675 439.739 991.136 432.4C996.768 424.891 1002.91 416.016 1009.57 405.776L1013.92 399.12C1017.16 394.683 1022.2 392.464 1029.02 392.464C1032.27 392.464 1035.42 393.403 1038.5 395.28C1041.74 397.157 1043.36 399.973 1043.36 403.728ZM1097.21 541.968C1097.21 536.336 1097.55 530.107 1098.23 523.28C1098.91 515.429 1099.25 505.531 1099.25 493.584C1099.25 471.739 1098.32 450.661 1096.44 430.352C1095.41 417.723 1094.9 408.763 1094.9 403.472C1094.9 399.888 1096.69 396.901 1100.28 394.512C1103.86 391.952 1107.53 390.672 1111.29 390.672C1113.68 390.672 1116.58 390.843 1119.99 391.184C1123.4 391.525 1125.88 391.696 1127.41 391.696C1165.81 391.696 1194.06 402.021 1212.15 422.672C1223.58 435.984 1229.3 453.648 1229.3 475.664C1229.3 484.88 1227.6 494.181 1224.18 503.568C1220.94 512.784 1216.25 520.293 1210.1 526.096C1203.45 532.581 1197.13 537.787 1191.16 541.712C1185.36 545.467 1177.42 548.624 1167.35 551.184C1157.45 553.744 1144.74 555.024 1129.21 555.024C1119.31 555.024 1111.46 553.915 1105.65 551.696C1100.02 549.477 1097.21 546.235 1097.21 541.968ZM1138.93 531.728C1150.37 531.728 1160.86 529.68 1170.42 525.584C1179.98 521.317 1187.66 515.003 1193.46 506.64C1199.26 498.107 1202.17 487.696 1202.17 475.408C1202.17 463.291 1200.46 453.221 1197.05 445.2C1193.63 437.008 1187.74 430.352 1179.38 425.232C1173.07 421.307 1165.3 418.491 1156.09 416.784C1146.87 414.907 1135.78 413.968 1122.81 413.968C1122.81 415.675 1122.98 419.6 1123.32 425.744C1123.66 431.547 1123.83 436.411 1123.83 440.336L1124.09 445.968C1125.11 463.717 1125.62 477.797 1125.62 488.208C1125.62 504.592 1124.68 518.757 1122.81 530.704C1126.9 531.387 1132.28 531.728 1138.93 531.728ZM1373.64 486.16C1388.49 511.419 1402.4 531.472 1415.37 546.32C1416.73 547.685 1417.41 549.221 1417.41 550.928C1417.41 553.147 1416.05 555.024 1413.32 556.56C1410.59 558.267 1407.43 559.12 1403.85 559.12C1398.56 559.12 1392.84 556.901 1386.69 552.464C1382.26 549.392 1378.16 544.869 1374.41 538.896C1370.65 532.752 1366.38 524.901 1361.61 515.344L1357.25 506.64C1352.82 498.619 1350.17 493.925 1349.32 492.56C1345.56 494.096 1341.21 495.205 1336.26 495.888C1331.31 496.571 1325.25 497.168 1318.09 497.68C1318.43 519.525 1318.6 534.8 1318.6 543.504C1318.6 546.747 1317.4 549.392 1315.01 551.44C1312.62 553.317 1309.64 554.256 1306.05 554.256C1301.62 554.256 1298.2 552.464 1295.81 548.88C1293.42 544.101 1292.23 536.677 1292.23 526.608L1292.49 507.92C1292.49 496.315 1292.74 485.307 1293.25 474.896C1293.6 461.243 1293.77 451.173 1293.77 444.688L1294.02 431.632C1294.02 427.707 1293.77 423.696 1293.25 419.6C1290.52 418.747 1288.13 417.467 1286.09 415.76C1284.04 413.883 1283.01 411.835 1283.01 409.616C1283.01 405.349 1284.55 402.107 1287.62 399.888C1290.86 397.499 1294.88 395.963 1299.65 395.28C1313.48 393.061 1326.96 391.952 1340.1 391.952C1362.46 391.952 1380.98 396.133 1395.65 404.496C1410.33 412.859 1417.67 425.573 1417.67 442.64C1417.67 447.931 1416.48 453.051 1414.09 458C1411.87 462.779 1408.8 466.789 1404.87 470.032C1394.63 478.053 1384.22 483.429 1373.64 486.16ZM1390.53 441.872C1390.53 433.68 1386.18 427.024 1377.48 421.904C1368.94 416.613 1356.66 413.968 1340.61 413.968C1333.62 413.968 1326.45 414.821 1319.11 416.528C1319.45 422.672 1319.62 427.024 1319.62 429.584C1319.62 434.704 1319.28 442.043 1318.6 451.6C1318.26 461.157 1318.09 468.837 1318.09 474.64C1329.52 474.64 1340.44 473.104 1350.85 470.032C1358.36 467.813 1364.68 465.68 1369.8 463.632C1374.92 461.584 1379.61 458.768 1383.88 455.184C1388.32 451.429 1390.53 446.992 1390.53 441.872ZM1546.49 391.184C1557.93 391.184 1568.34 392.635 1577.72 395.536C1587.11 398.267 1594.79 402.363 1600.76 407.824C1611.52 417.552 1619.03 428.219 1623.29 439.824C1627.73 451.259 1629.95 465.936 1629.95 483.856C1629.95 487.611 1629.44 491.024 1628.41 494.096C1627.56 497.168 1626.11 501.093 1624.06 505.872C1621.5 511.163 1619.96 515.344 1619.45 518.416C1616.04 524.389 1610.41 530.107 1602.56 535.568C1594.88 541.029 1586.51 545.467 1577.47 548.88C1568.42 552.293 1560.49 554 1553.66 554C1520.72 554 1497.25 542.736 1483.26 520.208C1479.33 513.893 1476.26 507.323 1474.04 500.496C1472 493.669 1470.97 487.013 1470.97 480.528C1470.97 463.12 1474.04 448.016 1480.19 435.216C1486.5 422.245 1495.21 412.176 1506.3 405.008C1512.96 401.083 1519.87 397.84 1527.04 395.28C1534.37 392.549 1540.86 391.184 1546.49 391.184ZM1497.6 481.296C1497.6 490.512 1499.64 498.107 1503.74 504.08C1508.01 510.053 1514.49 516.539 1523.2 523.536C1530.36 526.267 1535.23 528.059 1537.79 528.912C1540.35 529.595 1543.25 529.936 1546.49 529.936C1563.73 529.936 1577.47 525.243 1587.71 515.856C1597.95 506.469 1603.07 493.584 1603.07 477.2C1603.07 464.229 1601.62 453.989 1598.72 446.48C1595.81 438.971 1590.61 432.229 1583.1 426.256C1579.17 423.013 1574.14 420.624 1568 419.088C1562.02 417.552 1555.54 416.784 1548.54 416.784C1537.96 416.784 1528.83 419.941 1521.15 426.256C1513.47 432.4 1507.58 440.421 1503.48 450.32C1499.56 460.219 1497.6 470.544 1497.6 481.296Z" fill="white"/>
<path d="M668.419 142.726C692.339 154.587 713.134 171.711 729.19 192.769V192.769C743.577 211.639 753.83 233.237 759.306 256.208L761.961 267.346C767.604 291.022 769.317 315.449 767.034 339.685L765.416 356.865C762.803 384.602 756.653 411.917 747.109 438.17L738.534 461.756C729.407 486.861 717.618 510.962 703.36 533.66L683.532 565.226C670.35 586.211 655.124 605.893 638.069 623.994L609.959 653.828C592.45 672.411 573.099 689.236 552.196 704.052L527.472 721.576C503.683 738.437 478.028 752.594 451 763.773L432.622 771.375C408.339 781.42 382.741 788.043 356.59 791.049L341.18 792.82C317.364 795.558 293.254 793.97 270.052 788.136L263.976 786.609C239.74 780.515 217.218 769.166 198.064 753.393V753.393C178.91 737.62 163.61 717.825 153.286 695.459L150.699 689.852C140.816 668.442 135.036 645.415 133.647 621.923L132.748 606.721C131.224 580.926 133.425 555.036 139.288 529.823L143.725 510.741C150.251 482.678 160.002 455.425 172.791 429.506L186.083 402.568C197.321 379.793 210.844 358.17 226.452 338.021L251.509 305.672C266.712 286.046 283.819 267.913 302.588 251.53L330.822 226.885C351.123 209.164 373.261 193.584 396.869 180.404L419.048 168.022C443.736 154.239 470.079 143.551 497.459 136.21L514.418 131.662C538.343 125.248 563.152 122.662 587.891 124.004L599.529 124.636C623.531 125.939 646.985 132.098 668.419 142.726V142.726Z" fill="url(#paint0_linear_605_25)"/>
<path d="M658.758 156.168C681.723 167.578 701.695 184.025 717.133 204.239V204.239C730.984 222.375 740.87 243.131 746.173 265.213L748.715 275.796C754.179 298.544 755.866 322.021 753.712 345.322L752.2 361.667C749.737 388.295 743.871 414.523 734.74 439.733L727.191 460.574C718.066 485.767 706.26 509.953 691.97 532.728L674.87 559.982C661.653 581.048 646.376 600.802 629.258 618.964L604.707 645.012C587.135 663.655 567.71 680.527 546.723 695.376L526.056 709.998C502.19 726.885 476.449 741.05 449.334 752.221L433.586 758.709C410.246 768.324 385.646 774.648 360.521 777.491L345.865 779.15C322.958 781.742 299.775 780.18 277.47 774.539L271.699 773.08C248.411 767.191 226.772 756.268 208.361 741.106V741.106C189.949 725.945 175.23 706.929 165.276 685.444L162.81 680.12C153.277 659.543 147.683 637.408 146.307 614.819L145.426 600.366C143.917 575.59 145.991 550.717 151.587 526.49L155.363 510.144C161.864 481.998 171.609 454.661 184.41 428.662L195.495 406.149C206.751 383.287 220.309 361.584 235.966 341.364L257.842 313.113C273.095 293.415 290.265 275.221 309.109 258.789L333.49 237.53C353.863 219.764 376.083 204.154 399.78 190.96L419.383 180.045C443.096 166.842 468.397 156.619 494.69 149.615L510.83 145.316C533.838 139.187 557.69 136.741 581.467 138.071L592.528 138.69C615.608 139.982 638.154 145.931 658.758 156.168V156.168Z" fill="#1B1B1D"/>
<path d="M144.644 624.688C161.984 621.071 179.029 631.934 182.714 648.951C186.4 665.968 175.331 682.695 157.991 686.312C140.652 689.929 123.607 679.066 119.921 662.049C116.236 645.032 127.305 628.305 144.644 624.688Z" fill="#AAA5A5"/>
<g filter="url(#filter0_d_605_25)">
<path d="M573.175 452C566.042 520 573.175 567 460.745 610.375C334.951 639.037 279.926 568.037 313.503 498.5C367.197 387.3 339.547 350.288 430.685 318.501C559.635 273.525 573.175 320.037 573.175 452Z" fill="url(#paint1_linear_605_25)"/>
<path d="M571.675 451.922C571.003 458.339 570.459 464.537 569.932 470.549C569.056 480.536 568.225 490.009 566.924 499.122C564.845 513.683 561.587 527.107 555.111 539.738C542.198 564.925 516.293 587.322 460.306 608.936C397.724 623.172 353.134 612.543 328.365 590.15C303.655 567.808 298.306 533.423 314.853 499.153C328.315 471.273 336.679 448.043 343.075 428.397C345.024 422.412 346.785 416.777 348.449 411.453C352.262 399.253 355.564 388.687 359.439 379.293C364.976 365.872 371.626 355.009 382.465 345.528C393.328 336.025 408.49 327.831 431.179 319.917C463.364 308.691 488.196 303.232 507.342 303.328C526.426 303.424 539.75 309.033 549.153 319.881C558.623 330.807 564.29 347.243 567.561 369.364C570.825 391.443 571.673 418.971 571.675 451.922Z" stroke="#2F2F2F" stroke-width="3"/>
</g>
<g filter="url(#filter1_i_605_25)">
<path d="M491.027 456.352C490.856 453.621 490.771 449.525 490.771 444.064V434.336C490.771 427.851 490.6 422.987 490.259 419.744C489.918 417.013 489.747 409.931 489.747 398.496C489.747 394.4 490.942 391.243 493.331 389.024C495.891 386.635 499.304 385.44 503.571 385.44C509.032 385.44 512.702 386.635 514.579 389.024C516.456 391.413 517.395 395.339 517.395 400.8V410.528L517.139 438.688C516.968 444.149 516.883 452.341 516.883 463.264L517.139 484.256C517.31 487.499 517.395 492.021 517.395 497.824C517.395 502.432 517.566 509.003 517.907 517.536C518.248 525.387 518.419 531.275 518.419 535.2C518.419 538.443 517.48 541.429 515.603 544.16C513.896 546.891 511.507 548.256 508.435 548.256C496.488 548.256 490.515 544.245 490.515 536.224C490.515 531.787 490.686 526.837 491.027 521.376C491.368 517.451 491.539 511.477 491.539 503.456C491.539 497.824 491.368 489.717 491.027 479.136C483.006 479.819 469.182 480.16 449.555 480.16C437.267 480.16 427.71 480.16 420.883 480.16C414.056 479.989 409.107 479.563 406.035 478.88L405.779 508.32C405.779 510.197 406.206 515.232 407.059 523.424C407.912 528.885 408.339 533.664 408.339 537.76C408.339 540.32 406.803 542.795 403.731 545.184C400.83 547.403 398.099 548.512 395.539 548.512C389.395 548.512 385.214 547.061 382.995 544.16C380.776 541.088 379.667 536.48 379.667 530.336L379.411 510.112C379.24 507.723 379.155 504.395 379.155 500.128C379.155 493.813 378.984 485.195 378.643 474.272C378.302 464.373 378.131 457.205 378.131 452.768C378.131 446.112 378.302 436.811 378.643 424.864C378.984 413.6 379.155 405.237 379.155 399.776C379.155 394.315 380.52 390.645 383.251 388.768C385.982 386.891 389.054 385.952 392.467 385.952C402.024 385.952 406.803 389.109 406.803 395.424C406.803 406.688 406.547 417.44 406.035 427.68C405.694 440.651 405.523 450.123 405.523 456.096C410.472 457.291 415.678 458.059 421.139 458.4C426.6 458.741 434.28 458.912 444.179 458.912C464.318 458.912 479.934 458.059 491.027 456.352Z" fill="white"/>
</g>
<defs>
<filter id="filter0_d_605_25" x="299.834" y="301.827" width="277.34" height="323.069" filterUnits="userSpaceOnUse" color-interpolation-filters="sRGB">
<feFlood flood-opacity="0" result="BackgroundImageFix"/>
<feColorMatrix in="SourceAlpha" type="matrix" values="0 0 0 0 0 0 0 0 0 0 0 0 0 0 0 0 0 0 127 0" result="hardAlpha"/>
<feOffset dy="4"/>
<feGaussianBlur stdDeviation="2"/>
<feComposite in2="hardAlpha" operator="out"/>
<feColorMatrix type="matrix" values="0 0 0 0 0 0 0 0 0 0 0 0 0 0 0 0 0 0 0.25 0"/>
<feBlend mode="normal" in2="BackgroundImageFix" result="effect1_dropShadow_605_25"/>
<feBlend mode="normal" in="SourceGraphic" in2="effect1_dropShadow_605_25" result="shape"/>
</filter>
<filter id="filter1_i_605_25" x="378.131" y="385.44" width="140.288" height="167.072" filterUnits="userSpaceOnUse" color-interpolation-filters="sRGB">
<feFlood flood-opacity="0" result="BackgroundImageFix"/>
<feBlend mode="normal" in="SourceGraphic" in2="BackgroundImageFix" result="shape"/>
<feColorMatrix in="SourceAlpha" type="matrix" values="0 0 0 0 0 0 0 0 0 0 0 0 0 0 0 0 0 0 127 0" result="hardAlpha"/>
<feOffset dy="4"/>
<feGaussianBlur stdDeviation="2"/>
<feComposite in2="hardAlpha" operator="arithmetic" k2="-1" k3="1"/>
<feColorMatrix type="matrix" values="0 0 0 0 0 0 0 0 0 0 0 0 0 0 0 0 0 0 0.25 0"/>
<feBlend mode="normal" in2="shape" result="effect1_innerShadow_605_25"/>
</filter>
<linearGradient id="paint0_linear_605_25" x1="704.782" y1="160.757" x2="206.423" y2="765.948" gradientUnits="userSpaceOnUse">
<stop stop-color="#A6A0A0"/>
<stop offset="0.315" stop-color="#FFF8F8"/>
<stop offset="0.661" stop-color="#E0D9D9"/>
<stop offset="0.896" stop-color="#989595"/>
</linearGradient>
<linearGradient id="paint1_linear_605_25" x1="438.505" y1="301.827" x2="438.505" y2="616.897" gradientUnits="userSpaceOnUse">
<stop stop-color="#E9F4F7"/>
<stop offset="0.421" stop-color="#7EBAE5"/>
<stop offset="0.821" stop-color="#083A75"/>
</linearGradient>
</defs>
</svg>
